<?xml version="1.0" encoding="utf-8"?>
<!-- Generator: Adobe Illustrator 27.3.1, SVG Export Plug-In . SVG Version: 6.00 Build 0)  -->
<svg version="1.1" id="Layer_1" xmlns="http://www.w3.org/2000/svg" xmlns:xlink="http://www.w3.org/1999/xlink" x="0px" y="0px"
	 viewBox="0 0 43 45" style="enable-background:new 0 0 43 45;" xml:space="preserve">
<path d="M25.1,16.7l7.5,0.2c0.3,0,0.5,0.2,0.5,0.5c0.2,4.8,0.3,9.6,0.2,14.4c0,0.1,0,0.5,0.1,1.4c0.1,1.9-0.9,2.8-3.1,2.8
	c-6,0-12.3,0-18.9,0c-1,0-1.8-0.8-1.8-1.8C9.5,26.2,9.5,18,9.5,9.6c0-0.1,0-0.5-0.1-1.2c-0.1-1.8,0.7-2.6,2.5-2.5
	C12.9,6,13.5,6,13.6,6c3-0.1,6,0,9,0.2c0.3,0,0.5,0.2,0.6,0.5l0.1,8C23.2,16,23.8,16.6,25.1,16.7z M27.3,19.9c0-0.5-0.4-0.9-0.9-0.9
	c0,0,0,0,0,0l-10.2,0c-0.5,0-0.9,0.4-0.9,0.9c0,0,0,0,0,0l0,0.2c0,0.5,0.4,0.9,0.9,0.9c0,0,0,0,0,0l10.2,0c0.5,0,0.9-0.4,0.9-0.9v0
	L27.3,19.9z M27.2,24c0-0.4-0.3-0.7-0.7-0.7H16.2c-0.4,0-0.7,0.3-0.7,0.7v0v0.6c0,0.4,0.3,0.7,0.7,0.7h0h10.3c0.4,0,0.7-0.3,0.7-0.7
	V24z M27.3,28.1c0-0.3-0.3-0.6-0.6-0.6c0,0,0,0,0,0l-10.6,0c-0.3,0-0.6,0.3-0.6,0.6c0,0,0,0,0,0l0,0.8c0,0.3,0.3,0.6,0.6,0.6
	c0,0,0,0,0,0l10.6,0c0.3,0,0.6-0.3,0.6-0.6c0,0,0,0,0,0L27.3,28.1z"/>
<path d="M25.5,13.8c-0.4-1.5-0.4-3.6,0-6.4C25.6,7.1,25.8,7,26,7.3l6,6.6c0.3,0.3,0.2,0.5-0.2,0.5l-5.7-0.1
	C25.9,14.4,25.6,14.2,25.5,13.8z"/>
</svg>
