<?xml version="1.0" encoding="utf-8"?>
<!-- Generator: Adobe Illustrator 27.3.1, SVG Export Plug-In . SVG Version: 6.00 Build 0)  -->
<svg version="1.1" id="Layer_1" xmlns="http://www.w3.org/2000/svg" xmlns:xlink="http://www.w3.org/1999/xlink" x="0px" y="0px"
	 viewBox="0 0 43 45" style="enable-background:new 0 0 43 45;" xml:space="preserve">
<path d="M33.2,30.2c0,2.6-2.2,4.8-4.8,4.8l-13.9,0c-2.6,0-4.8-2.2-4.8-4.8L9.8,14c0-2.6,2.2-4.8,4.8-4.8l13.9,0
	c2.6,0,4.8,2.2,4.8,4.8L33.2,30.2z M28.3,19.7c0.9-1.5,1-2.7,0.2-3.7c-0.6-0.8-1.2-1.4-1.8-1.9c-0.9-0.6-1.9-0.5-3.1,0.5
	c-0.4,0.3-0.5,0.9-0.2,1.3c0,0,0,0,0,0l3.5,3.9c0.3,0.3,0.8,0.3,1.1,0C28.2,19.8,28.3,19.8,28.3,19.7z M15.3,23.9
	c-1.4,1.4-1.9,3.3-1.4,5.9c0.1,0.3,0.3,0.5,0.6,0.6c2.5,0.5,4.4-0.1,5.6-1.6c1.6-2.1,3.6-4.3,6-6.7c0.3-0.3,0.3-0.8,0-1l-3.6-3.9
	c-0.2-0.2-0.5-0.2-0.7,0c0,0,0,0,0,0c-1.7,1.6-3.3,3.3-4.8,5.1C16.9,22.3,16.3,22.9,15.3,23.9z"/>
<path d="M21.1,19.7c0.2-0.4,0.4-0.5,0.7-0.4c0.2,0,0.3,0.2,0.2,0.4c0,0.1,0,0.1-0.1,0.1c-1.2,1.4-2.3,2.7-3.5,4
	c-0.7,0.8-0.9,0.8-0.8,0c0-0.1,0.1-0.3,0.2-0.4c0.9-1,1.8-2,2.7-3C20.7,20.4,20.9,20.1,21.1,19.7z"/>
<path d="M15.9,27.7c-0.7-0.3-0.9-0.7-0.5-1.3c0.2-0.3,0.5-0.4,0.8-0.3c0.7,0.2,1.2,0.7,1.5,1.5c0.1,0.3,0.1,0.6,0,0.9
	c-0.3,0.6-0.7,0.5-1.1-0.3C16.5,28,16.3,27.8,15.9,27.7z"/>
</svg>
